<svg xmlns="http://www.w3.org/2000/svg" viewBox="0 0 96.81 79.47"><defs><style>.cls-1{fill:#ff7a45;}</style></defs><title>Asset 4</title><g id="Layer_2" data-name="Layer 2"><g id="Layer_1-2" data-name="Layer 1"><path class="cls-1" d="M29.26,79.47a26.2,26.2,0,0,1-15.55-5,31.7,31.7,0,0,1-10.81-14Q-.86,51.53.26,39.7q1.13-13,6.59-21.85A37.68,37.68,0,0,1,20.3,4.52,33.35,33.35,0,0,1,36.94,0,26.78,26.78,0,0,1,49.79,2.86a24.6,24.6,0,0,1,8.58,7.5A29.07,29.07,0,0,1,63,20.49a33.53,33.53,0,0,1,.86,10.69L41.09,31a15.14,15.14,0,0,0-1.44-5.73c-.85-1.8-2.53-2.71-5-2.71a9.71,9.71,0,0,0-5,1.51,12.49,12.49,0,0,0-4.49,5.23A29.89,29.89,0,0,0,22.56,39.7q-.61,6.54.56,10.24a9.61,9.61,0,0,0,3.35,5.2,7.8,7.8,0,0,0,4.45,1.5q4.89,0,6.63-2.33a13.46,13.46,0,0,0,2.33-5.73H62.1a39.7,39.7,0,0,1-4.67,15.11A30.5,30.5,0,0,1,46.58,75.1Q39.57,79.47,29.26,79.47Z"/><path class="cls-1" d="M80,78.19a13.27,13.27,0,0,1-10.47-4.45q-3.92-4.44-3.16-11.52A18.46,18.46,0,0,1,71.7,50.88,15.32,15.32,0,0,1,83,46.25a13.15,13.15,0,0,1,10.36,4.48q4,4.49,3.43,11.49a16.29,16.29,0,0,1-5.5,11.67A16.84,16.84,0,0,1,80,78.19Z"/></g></g></svg>